TITLE ""
FILE "LR_black_phrase_E_B05.mp3" MP3
  TRACK 01 AUDIO
    TITLE "LR_black_phrase_E_B05_001"
    INDEX 01 00:00:00
  TRACK 02 AUDIO
    TITLE "LR_black_phrase_E_B05_002"
    INDEX 01 00:00:14
  TRACK 03 AUDIO
    TITLE "LR_black_phrase_E_B05_003"
    INDEX 01 00:01:41
  TRACK 04 AUDIO
    TITLE "LR_black_phrase_E_B05_004"
    INDEX 01 00:01:72
  TRACK 05 AUDIO
    TITLE "LR_black_phrase_E_B05_005"
    INDEX 01 00:04:69
  TRACK 06 AUDIO
    TITLE "LR_black_phrase_E_B05_006"
    INDEX 01 00:05:47
  TRACK 07 AUDIO
    TITLE "LR_black_phrase_E_B05_007"
    INDEX 01 00:08:43
  TRACK 08 AUDIO
    TITLE "LR_black_phrase_E_B05_008"
    INDEX 01 00:09:46
  TRACK 09 AUDIO
    TITLE "LR_black_phrase_E_B05_009"
    INDEX 01 00:10:73
  TRACK 10 AUDIO
    TITLE "LR_black_phrase_E_B05_010"
    INDEX 01 00:11:30
  TRACK 11 AUDIO
    TITLE "LR_black_phrase_E_B05_011"
    INDEX 01 00:14:12
  TRACK 12 AUDIO
    TITLE "LR_black_phrase_E_B05_012"
    INDEX 01 00:14:67
  TRACK 13 AUDIO
    TITLE "LR_black_phrase_E_B05_013"
    INDEX 01 00:17:54
  TRACK 14 AUDIO
    TITLE "LR_black_phrase_E_B05_014"
    INDEX 01 00:18:57
  TRACK 15 AUDIO
    TITLE "LR_black_phrase_E_B05_015"
    INDEX 01 00:20:37
  TRACK 16 AUDIO
    TITLE "LR_black_phrase_E_B05_016"
    INDEX 01 00:20:68
  TRACK 17 AUDIO
    TITLE "LR_black_phrase_E_B05_017"
    INDEX 01 00:22:67
  TRACK 18 AUDIO
    TITLE "LR_black_phrase_E_B05_018"
    INDEX 01 00:23:45
  TRACK 19 AUDIO
    TITLE "LR_black_phrase_E_B05_019"
    INDEX 01 00:25:46
  TRACK 20 AUDIO
    TITLE "LR_black_phrase_E_B05_020"
    INDEX 01 00:26:43
  TRACK 21 AUDIO
    TITLE "LR_black_phrase_E_B05_021"
    INDEX 01 00:27:66
  TRACK 22 AUDIO
    TITLE "LR_black_phrase_E_B05_022"
    INDEX 01 00:28:13
  TRACK 23 AUDIO
    TITLE "LR_black_phrase_E_B05_023"
    INDEX 01 00:30:54
  TRACK 24 AUDIO
    TITLE "LR_black_phrase_E_B05_024"
    INDEX 01 00:31:25
  TRACK 25 AUDIO
    TITLE "LR_black_phrase_E_B05_025"
    INDEX 01 00:33:69
  TRACK 26 AUDIO
    TITLE "LR_black_phrase_E_B05_026"
    INDEX 01 00:34:64
  TRACK 27 AUDIO
    TITLE "LR_black_phrase_E_B05_027"
    INDEX 01 00:36:24
  TRACK 28 AUDIO
    TITLE "LR_black_phrase_E_B05_028"
    INDEX 01 00:36:53
  TRACK 29 AUDIO
    TITLE "LR_black_phrase_E_B05_029"
    INDEX 01 00:39:06
  TRACK 30 AUDIO
    TITLE "LR_black_phrase_E_B05_030"
    INDEX 01 00:39:57
  TRACK 31 AUDIO
    TITLE "LR_black_phrase_E_B05_031"
    INDEX 01 00:42:11
  TRACK 32 AUDIO
    TITLE "LR_black_phrase_E_B05_032"
    INDEX 01 00:43:08
  TRACK 33 AUDIO
    TITLE "LR_black_phrase_E_B05_033"
    INDEX 01 00:44:15
  TRACK 34 AUDIO
    TITLE "LR_black_phrase_E_B05_034"
    INDEX 01 00:44:37
  TRACK 35 AUDIO
    TITLE "LR_black_phrase_E_B05_035"
    INDEX 01 00:47:12
  TRACK 36 AUDIO
    TITLE "LR_black_phrase_E_B05_036"
    INDEX 01 00:47:59
  TRACK 37 AUDIO
    TITLE "LR_black_phrase_E_B05_037"
    INDEX 01 00:50:34
  TRACK 38 AUDIO
    TITLE "LR_black_phrase_E_B05_038"
    INDEX 01 00:51:37
  TRACK 39 AUDIO
    TITLE "LR_black_phrase_E_B05_039"
    INDEX 01 00:52:58
  TRACK 40 AUDIO
    TITLE "LR_black_phrase_E_B05_040"
    INDEX 01 00:53:12
  TRACK 41 AUDIO
    TITLE "LR_black_phrase_E_B05_041"
    INDEX 01 00:55:29
  TRACK 42 AUDIO
    TITLE "LR_black_phrase_E_B05_042"
    INDEX 01 00:56:07
  TRACK 43 AUDIO
    TITLE "LR_black_phrase_E_B05_043"
    INDEX 01 00:58:23
  TRACK 44 AUDIO
    TITLE "LR_black_phrase_E_B05_044"
    INDEX 01 00:59:27
  TRACK 45 AUDIO
    TITLE "LR_black_phrase_E_B05_045"
    INDEX 01 01:00:36
  TRACK 46 AUDIO
    TITLE "LR_black_phrase_E_B05_046"
    INDEX 01 01:00:63
  TRACK 47 AUDIO
    TITLE "LR_black_phrase_E_B05_047"
    INDEX 01 01:03:17
  TRACK 48 AUDIO
    TITLE "LR_black_phrase_E_B05_048"
    INDEX 01 01:03:72
  TRACK 49 AUDIO
    TITLE "LR_black_phrase_E_B05_049"
    INDEX 01 01:06:23
  TRACK 50 AUDIO
    TITLE "LR_black_phrase_E_B05_050"
    INDEX 01 01:07:30
  TRACK 51 AUDIO
    TITLE "LR_black_phrase_E_B05_051"
    INDEX 01 01:08:47
  TRACK 52 AUDIO
    TITLE "LR_black_phrase_E_B05_052"
    INDEX 01 01:09:00
  TRACK 53 AUDIO
    TITLE "LR_black_phrase_E_B05_053"
    INDEX 01 01:11:63
  TRACK 54 AUDIO
    TITLE "LR_black_phrase_E_B05_054"
    INDEX 01 01:12:41
  TRACK 55 AUDIO
    TITLE "LR_black_phrase_E_B05_055"
    INDEX 01 01:15:30
  TRACK 56 AUDIO
    TITLE "LR_black_phrase_E_B05_056"
    INDEX 01 01:16:33
  TRACK 57 AUDIO
    TITLE "LR_black_phrase_E_B05_057"
    INDEX 01 01:17:58
  TRACK 58 AUDIO
    TITLE "LR_black_phrase_E_B05_058"
    INDEX 01 01:18:06
  TRACK 59 AUDIO
    TITLE "LR_black_phrase_E_B05_059"
    INDEX 01 01:20:09
  TRACK 60 AUDIO
    TITLE "LR_black_phrase_E_B05_060"
    INDEX 01 01:20:54
  TRACK 61 AUDIO
    TITLE "LR_black_phrase_E_B05_061"
    INDEX 01 01:22:61
  TRACK 62 AUDIO
    TITLE "LR_black_phrase_E_B05_062"
    INDEX 01 01:23:55
  TRACK 63 AUDIO
    TITLE "LR_black_phrase_E_B05_063"
    INDEX 01 01:25:09
  TRACK 64 AUDIO
    TITLE "LR_black_phrase_E_B05_064"
    INDEX 01 01:25:30
  TRACK 65 AUDIO
    TITLE "LR_black_phrase_E_B05_065"
    INDEX 01 01:28:46
  TRACK 66 AUDIO
    TITLE "LR_black_phrase_E_B05_066"
    INDEX 01 01:29:16
  TRACK 67 AUDIO
    TITLE "LR_black_phrase_E_B05_067"
    INDEX 01 01:32:34
  TRACK 68 AUDIO
    TITLE "LR_black_phrase_E_B05_068"
    INDEX 01 01:33:30
  TRACK 69 AUDIO
    TITLE "LR_black_phrase_E_B05_069"
    INDEX 01 01:34:56
  TRACK 70 AUDIO
    TITLE "LR_black_phrase_E_B05_070"
    INDEX 01 01:34:74
  TRACK 71 AUDIO
    TITLE "LR_black_phrase_E_B05_071"
    INDEX 01 01:37:23
  TRACK 72 AUDIO
    TITLE "LR_black_phrase_E_B05_072"
    INDEX 01 01:37:67
  TRACK 73 AUDIO
    TITLE "LR_black_phrase_E_B05_073"
    INDEX 01 01:40:16
  TRACK 74 AUDIO
    TITLE "LR_black_phrase_E_B05_074"
    INDEX 01 01:41:15
  TRACK 75 AUDIO
    TITLE "LR_black_phrase_E_B05_075"
    INDEX 01 01:42:36
  TRACK 76 AUDIO
    TITLE "LR_black_phrase_E_B05_076"
    INDEX 01 01:42:68
  TRACK 77 AUDIO
    TITLE "LR_black_phrase_E_B05_077"
    INDEX 01 01:46:13
  TRACK 78 AUDIO
    TITLE "LR_black_phrase_E_B05_078"
    INDEX 01 01:46:67
  TRACK 79 AUDIO
    TITLE "LR_black_phrase_E_B05_079"
    INDEX 01 01:50:14
  TRACK 80 AUDIO
    TITLE "LR_black_phrase_E_B05_080"
    INDEX 01 01:51:18
  TRACK 81 AUDIO
    TITLE "LR_black_phrase_E_B05_081"
    INDEX 01 01:52:50
  TRACK 82 AUDIO
    TITLE "LR_black_phrase_E_B05_082"
    INDEX 01 01:53:15
  TRACK 83 AUDIO
    TITLE "LR_black_phrase_E_B05_083"
    INDEX 01 01:55:63
  TRACK 84 AUDIO
    TITLE "LR_black_phrase_E_B05_084"
    INDEX 01 01:56:42
  TRACK 85 AUDIO
    TITLE "LR_black_phrase_E_B05_085"
    INDEX 01 01:59:17
  TRACK 86 AUDIO
    TITLE "LR_black_phrase_E_B05_086"
    INDEX 01 02:00:24
  TRACK 87 AUDIO
    TITLE "LR_black_phrase_E_B05_087"
    INDEX 01 02:01:59
  TRACK 88 AUDIO
    TITLE "LR_black_phrase_E_B05_088"
    INDEX 01 02:02:12
  TRACK 89 AUDIO
    TITLE "LR_black_phrase_E_B05_089"
    INDEX 01 02:04:65
  TRACK 90 AUDIO
    TITLE "LR_black_phrase_E_B05_090"
    INDEX 01 02:05:45
  TRACK 91 AUDIO
    TITLE "LR_black_phrase_E_B05_091"
    INDEX 01 02:08:24
  TRACK 92 AUDIO
    TITLE "LR_black_phrase_E_B05_092"
    INDEX 01 02:09:22
  TRACK 93 AUDIO
    TITLE "LR_black_phrase_E_B05_093"
    INDEX 01 02:10:37
  TRACK 94 AUDIO
    TITLE "LR_black_phrase_E_B05_094"
    INDEX 01 02:10:54
  TRACK 95 AUDIO
    TITLE "LR_black_phrase_E_B05_095"
    INDEX 01 02:12:65
  TRACK 96 AUDIO
    TITLE "LR_black_phrase_E_B05_096"
    INDEX 01 02:13:35
  TRACK 97 AUDIO
    TITLE "LR_black_phrase_E_B05_097"
    INDEX 01 02:15:44
  TRACK 98 AUDIO
    TITLE "LR_black_phrase_E_B05_098"
    INDEX 01 02:16:39
  TRACK 99 AUDIO
    TITLE "LR_black_phrase_E_B05_099"
    INDEX 01 02:17:45
  TRACK 100 AUDIO
    TITLE "LR_black_phrase_E_B05_100"
    INDEX 01 02:17:64
  TRACK 101 AUDIO
    TITLE "LR_black_phrase_E_B05_101"
    INDEX 01 02:20:08
  TRACK 102 AUDIO
    TITLE "LR_black_phrase_E_B05_102"
    INDEX 01 02:20:53
  TRACK 103 AUDIO
    TITLE "LR_black_phrase_E_B05_103"
    INDEX 01 02:22:71
  TRACK 104 AUDIO
    TITLE "LR_black_phrase_E_B05_104"
    INDEX 01 02:23:65
  TRACK 105 AUDIO
    TITLE "LR_black_phrase_E_B05_105"
    INDEX 01 02:25:13
  TRACK 106 AUDIO
    TITLE "LR_black_phrase_E_B05_106"
    INDEX 01 02:25:34
  TRACK 107 AUDIO
    TITLE "LR_black_phrase_E_B05_107"
    INDEX 01 02:27:70
  TRACK 108 AUDIO
    TITLE "LR_black_phrase_E_B05_108"
    INDEX 01 02:28:40
  TRACK 109 AUDIO
    TITLE "LR_black_phrase_E_B05_109"
    INDEX 01 02:31:03
  TRACK 110 AUDIO
    TITLE "LR_black_phrase_E_B05_110"
    INDEX 01 02:32:01
  TRACK 111 AUDIO
    TITLE "LR_black_phrase_E_B05_111"
    INDEX 01 02:33:18
  TRACK 112 AUDIO
    TITLE "LR_black_phrase_E_B05_112"
    INDEX 01 02:33:47
  TRACK 113 AUDIO
    TITLE "LR_black_phrase_E_B05_113"
    INDEX 01 02:37:20
  TRACK 114 AUDIO
    TITLE "LR_black_phrase_E_B05_114"
    INDEX 01 02:38:00
  TRACK 115 AUDIO
    TITLE "LR_black_phrase_E_B05_115"
    INDEX 01 02:41:45
  TRACK 116 AUDIO
    TITLE "LR_black_phrase_E_B05_116"
    INDEX 01 02:42:52
  TRACK 117 AUDIO
    TITLE "LR_black_phrase_E_B05_117"
    INDEX 01 02:43:73
  TRACK 118 AUDIO
    TITLE "LR_black_phrase_E_B05_118"
    INDEX 01 02:44:30
  TRACK 119 AUDIO
    TITLE "LR_black_phrase_E_B05_119"
    INDEX 01 02:47:22
  TRACK 120 AUDIO
    TITLE "LR_black_phrase_E_B05_120"
    INDEX 01 02:48:02
  TRACK 121 AUDIO
    TITLE "LR_black_phrase_E_B05_121"
    INDEX 01 02:50:69
  TRACK 122 AUDIO
    TITLE "LR_black_phrase_E_B05_122"
    INDEX 01 02:52:00
  TRACK 123 AUDIO
    TITLE "LR_black_phrase_E_B05_123"
    INDEX 01 02:53:03
  TRACK 124 AUDIO
    TITLE "LR_black_phrase_E_B05_124"
    INDEX 01 02:53:33
  TRACK 125 AUDIO
    TITLE "LR_black_phrase_E_B05_125"
    INDEX 01 02:55:61
  TRACK 126 AUDIO
    TITLE "LR_black_phrase_E_B05_126"
    INDEX 01 02:56:43
  TRACK 127 AUDIO
    TITLE "LR_black_phrase_E_B05_127"
    INDEX 01 02:58:73
  TRACK 128 AUDIO
    TITLE "LR_black_phrase_E_B05_128"
    INDEX 01 02:59:74
  TRACK 129 AUDIO
    TITLE "LR_black_phrase_E_B05_129"
    INDEX 01 03:01:03
  TRACK 130 AUDIO
    TITLE "LR_black_phrase_E_B05_130"
    INDEX 01 03:01:22
  TRACK 131 AUDIO
    TITLE "LR_black_phrase_E_B05_131"
    INDEX 01 03:03:41
  TRACK 132 AUDIO
    TITLE "LR_black_phrase_E_B05_132"
    INDEX 01 03:04:09
  TRACK 133 AUDIO
    TITLE "LR_black_phrase_E_B05_133"
    INDEX 01 03:06:27
  TRACK 134 AUDIO
    TITLE "LR_black_phrase_E_B05_134"
    INDEX 01 03:07:23
  TRACK 135 AUDIO
    TITLE "LR_black_phrase_E_B05_135"
    INDEX 01 03:08:40
  TRACK 136 AUDIO
    TITLE "LR_black_phrase_E_B05_136"
    INDEX 01 03:08:69
  TRACK 137 AUDIO
    TITLE "LR_black_phrase_E_B05_137"
    INDEX 01 03:11:07
  TRACK 138 AUDIO
    TITLE "LR_black_phrase_E_B05_138"
    INDEX 01 03:11:58
  TRACK 139 AUDIO
    TITLE "LR_black_phrase_E_B05_139"
    INDEX 01 03:13:69
  TRACK 140 AUDIO
    TITLE "LR_black_phrase_E_B05_140"
    INDEX 01 03:14:70
  TRACK 141 AUDIO
    TITLE "LR_black_phrase_E_B05_141"
    INDEX 01 03:16:16
  TRACK 142 AUDIO
    TITLE "LR_black_phrase_E_B05_142"
    INDEX 01 03:16:39
  TRACK 143 AUDIO
    TITLE "LR_black_phrase_E_B05_143"
    INDEX 01 03:18:46
  TRACK 144 AUDIO
    TITLE "LR_black_phrase_E_B05_144"
    INDEX 01 03:19:22
  TRACK 145 AUDIO
    TITLE "LR_black_phrase_E_B05_145"
    INDEX 01 03:21:31
  TRACK 146 AUDIO
    TITLE "LR_black_phrase_E_B05_146"
    INDEX 01 03:22:38
  TRACK 147 AUDIO
    TITLE "LR_black_phrase_E_B05_147"
    INDEX 01 03:23:49
  TRACK 148 AUDIO
    TITLE "LR_black_phrase_E_B05_148"
    INDEX 01 03:24:08
  TRACK 149 AUDIO
    TITLE "LR_black_phrase_E_B05_149"
    INDEX 01 03:26:40
  TRACK 150 AUDIO
    TITLE "LR_black_phrase_E_B05_150"
    INDEX 01 03:27:20
  TRACK 151 AUDIO
    TITLE "LR_black_phrase_E_B05_151"
    INDEX 01 03:29:52
  TRACK 152 AUDIO
    TITLE "LR_black_phrase_E_B05_152"
    INDEX 01 03:30:57
  TRACK 153 AUDIO
    TITLE "LR_black_phrase_E_B05_153"
    INDEX 01 03:31:64
  TRACK 154 AUDIO
    TITLE "LR_black_phrase_E_B05_154"
    INDEX 01 03:32:19
  TRACK 155 AUDIO
    TITLE "LR_black_phrase_E_B05_155"
    INDEX 01 03:34:10
  TRACK 156 AUDIO
    TITLE "LR_black_phrase_E_B05_156"
    INDEX 01 03:34:65
  TRACK 157 AUDIO
    TITLE "LR_black_phrase_E_B05_157"
    INDEX 01 03:36:56
  TRACK 158 AUDIO
    TITLE "LR_black_phrase_E_B05_158"
    INDEX 01 03:37:59
  TRACK 159 AUDIO
    TITLE "LR_black_phrase_E_B05_159"
    INDEX 01 03:39:11
  TRACK 160 AUDIO
    TITLE "LR_black_phrase_E_B05_160"
    INDEX 01 03:39:42
  TRACK 161 AUDIO
    TITLE "LR_black_phrase_E_B05_161"
    INDEX 01 03:42:45
  TRACK 162 AUDIO
    TITLE "LR_black_phrase_E_B05_162"
    INDEX 01 03:43:25
  TRACK 163 AUDIO
    TITLE "LR_black_phrase_E_B05_163"
    INDEX 01 03:46:27
  TRACK 164 AUDIO
    TITLE "LR_black_phrase_E_B05_164"
    INDEX 01 03:47:26
  TRACK 165 AUDIO
    TITLE "LR_black_phrase_E_B05_165"
    INDEX 01 03:48:39
  TRACK 166 AUDIO
    TITLE "LR_black_phrase_E_B05_166"
    INDEX 01 03:48:61
  TRACK 167 AUDIO
    TITLE "LR_black_phrase_E_B05_167"
    INDEX 01 03:51:01
  TRACK 168 AUDIO
    TITLE "LR_black_phrase_E_B05_168"
    INDEX 01 03:51:48
  TRACK 169 AUDIO
    TITLE "LR_black_phrase_E_B05_169"
    INDEX 01 03:53:60
  TRACK 170 AUDIO
    TITLE "LR_black_phrase_E_B05_170"
    INDEX 01 03:54:58
  TRACK 171 AUDIO
    TITLE "LR_black_phrase_E_B05_171"
    INDEX 01 03:56:04
  TRACK 172 AUDIO
    TITLE "LR_black_phrase_E_B05_172"
    INDEX 01 03:56:27
  TRACK 173 AUDIO
    TITLE "LR_black_phrase_E_B05_173"
    INDEX 01 03:58:26
  TRACK 174 AUDIO
    TITLE "LR_black_phrase_E_B05_174"
    INDEX 01 03:58:71
  TRACK 175 AUDIO
    TITLE "LR_black_phrase_E_B05_175"
    INDEX 01 04:00:72
  TRACK 176 AUDIO
    TITLE "LR_black_phrase_E_B05_176"
    INDEX 01 04:01:69
  TRACK 177 AUDIO
    TITLE "LR_black_phrase_E_B05_177"
    INDEX 01 04:03:04
  TRACK 178 AUDIO
    TITLE "LR_black_phrase_E_B05_178"
    INDEX 01 04:03:27
  TRACK 179 AUDIO
    TITLE "LR_black_phrase_E_B05_179"
    INDEX 01 04:05:05
  TRACK 180 AUDIO
    TITLE "LR_black_phrase_E_B05_180"
    INDEX 01 04:05:50
  TRACK 181 AUDIO
    TITLE "LR_black_phrase_E_B05_181"
    INDEX 01 04:07:27
